<mxfile host="app.diagrams.net" modified="2023-10-10T01:18:40.790Z" agent="Mozilla/5.0 (Windows NT 10.0; Win64; x64) AppleWebKit/537.36 (KHTML, like Gecko) Chrome/117.0.0.0 Safari/537.36" etag="uWtlYm-EGkZVi8eXgtcF" version="22.0.4" type="google">
  <diagram name="Page-1" id="2YBvvXClWsGukQMizWep">
    <mxGraphModel grid="1" page="1" gridSize="10" guides="1" tooltips="1" connect="1" arrows="1" fold="1" pageScale="1" pageWidth="850" pageHeight="1100" math="0" shadow="0">
      <root>
        <mxCell id="0" />
        <mxCell id="1" parent="0" />
        <mxCell id="aM9ryv3xv72pqoxQDRHE-1" value="&lt;i&gt;InstanciaGoogle :&lt;/i&gt;&lt;br&gt;&lt;b&gt;GoogleMaps&lt;/b&gt;" style="shape=umlLifeline;perimeter=lifelinePerimeter;whiteSpace=wrap;html=1;container=0;dropTarget=0;collapsible=0;recursiveResize=0;outlineConnect=0;portConstraint=eastwest;newEdgeStyle={&quot;edgeStyle&quot;:&quot;elbowEdgeStyle&quot;,&quot;elbow&quot;:&quot;vertical&quot;,&quot;curved&quot;:0,&quot;rounded&quot;:0};" vertex="1" parent="1">
          <mxGeometry x="557.86" y="420" width="100" height="260" as="geometry" />
        </mxCell>
        <mxCell id="aM9ryv3xv72pqoxQDRHE-2" value="" style="html=1;points=[];perimeter=orthogonalPerimeter;outlineConnect=0;targetShapes=umlLifeline;portConstraint=eastwest;newEdgeStyle={&quot;edgeStyle&quot;:&quot;elbowEdgeStyle&quot;,&quot;elbow&quot;:&quot;vertical&quot;,&quot;curved&quot;:0,&quot;rounded&quot;:0};" vertex="1" parent="aM9ryv3xv72pqoxQDRHE-1">
          <mxGeometry x="45" y="110" width="10" height="70" as="geometry" />
        </mxCell>
        <mxCell id="HJQ2WrZzmwikBVrHChBw-2" value="&lt;i&gt;maps :&lt;br&gt;&lt;/i&gt;&lt;b&gt;AdaptadorGoogleMaps&lt;/b&gt;" style="shape=umlLifeline;perimeter=lifelinePerimeter;whiteSpace=wrap;html=1;container=0;dropTarget=0;collapsible=0;recursiveResize=0;outlineConnect=0;portConstraint=eastwest;newEdgeStyle={&quot;edgeStyle&quot;:&quot;elbowEdgeStyle&quot;,&quot;elbow&quot;:&quot;vertical&quot;,&quot;curved&quot;:0,&quot;rounded&quot;:0};" vertex="1" parent="1">
          <mxGeometry x="403" y="420" width="140" height="260" as="geometry" />
        </mxCell>
        <mxCell id="HJQ2WrZzmwikBVrHChBw-3" value="" style="html=1;points=[];perimeter=orthogonalPerimeter;outlineConnect=0;targetShapes=umlLifeline;portConstraint=eastwest;newEdgeStyle={&quot;edgeStyle&quot;:&quot;elbowEdgeStyle&quot;,&quot;elbow&quot;:&quot;vertical&quot;,&quot;curved&quot;:0,&quot;rounded&quot;:0};" vertex="1" parent="HJQ2WrZzmwikBVrHChBw-2">
          <mxGeometry x="65" y="90" width="10" height="90" as="geometry" />
        </mxCell>
        <mxCell id="uAsUkdCC7uXKx1wc8Jlj-1" value="3-&lt;br&gt;+ getAddress(x, y)" style="html=1;verticalAlign=bottom;endArrow=block;edgeStyle=elbowEdgeStyle;elbow=vertical;curved=0;rounded=0;" edge="1" parent="1" source="HJQ2WrZzmwikBVrHChBw-3">
          <mxGeometry x="-0.0019" relative="1" as="geometry">
            <mxPoint x="493" y="540" as="sourcePoint" />
            <Array as="points" />
            <mxPoint as="offset" />
            <mxPoint x="603" y="540" as="targetPoint" />
          </mxGeometry>
        </mxCell>
        <mxCell id="HJQ2WrZzmwikBVrHChBw-4" value="&lt;i&gt;cliente :&lt;/i&gt;&lt;br&gt;&lt;b&gt;Mapeador&lt;/b&gt;" style="shape=umlLifeline;perimeter=lifelinePerimeter;whiteSpace=wrap;html=1;container=0;dropTarget=0;collapsible=0;recursiveResize=0;outlineConnect=0;portConstraint=eastwest;newEdgeStyle={&quot;edgeStyle&quot;:&quot;elbowEdgeStyle&quot;,&quot;elbow&quot;:&quot;vertical&quot;,&quot;curved&quot;:0,&quot;rounded&quot;:0};" vertex="1" parent="1">
          <mxGeometry x="273" y="420" width="100" height="260" as="geometry" />
        </mxCell>
        <mxCell id="HJQ2WrZzmwikBVrHChBw-5" value="" style="html=1;points=[];perimeter=orthogonalPerimeter;outlineConnect=0;targetShapes=umlLifeline;portConstraint=eastwest;newEdgeStyle={&quot;edgeStyle&quot;:&quot;elbowEdgeStyle&quot;,&quot;elbow&quot;:&quot;vertical&quot;,&quot;curved&quot;:0,&quot;rounded&quot;:0};" vertex="1" parent="HJQ2WrZzmwikBVrHChBw-4">
          <mxGeometry x="45" y="60" width="10" height="160" as="geometry" />
        </mxCell>
        <mxCell id="HJQ2WrZzmwikBVrHChBw-6" value="2-&lt;br&gt;+ obtenerDireccion(x,y)" style="html=1;verticalAlign=bottom;endArrow=block;edgeStyle=elbowEdgeStyle;elbow=vertical;curved=0;rounded=0;" edge="1" parent="1" source="HJQ2WrZzmwikBVrHChBw-5" target="HJQ2WrZzmwikBVrHChBw-3">
          <mxGeometry relative="1" as="geometry">
            <mxPoint x="272.5" y="520" as="sourcePoint" />
            <Array as="points">
              <mxPoint x="400" y="520" />
            </Array>
            <mxPoint as="offset" />
            <mxPoint x="398" y="520" as="targetPoint" />
          </mxGeometry>
        </mxCell>
        <mxCell id="9dg1Qpggz0v6w3t59ocL-12" value="&lt;i&gt;direccion&lt;/i&gt;" style="html=1;verticalAlign=bottom;endArrow=open;dashed=1;endSize=8;curved=0;rounded=0;" edge="1" parent="1" target="HJQ2WrZzmwikBVrHChBw-3">
          <mxGeometry x="-0.1303" relative="1" as="geometry">
            <mxPoint x="602.8600000000001" y="570" as="sourcePoint" />
            <mxPoint x="472.8103448275863" y="570" as="targetPoint" />
            <mxPoint as="offset" />
            <Array as="points" />
          </mxGeometry>
        </mxCell>
        <mxCell id="HJQ2WrZzmwikBVrHChBw-9" value="1-&lt;br&gt;+ getDireccion(x,y)" style="html=1;verticalAlign=bottom;startArrow=oval;startFill=1;endArrow=block;startSize=8;curved=0;rounded=0;" edge="1" parent="1" target="HJQ2WrZzmwikBVrHChBw-5">
          <mxGeometry x="0.037" width="60" relative="1" as="geometry">
            <mxPoint x="193" y="500" as="sourcePoint" />
            <mxPoint x="323" y="500" as="targetPoint" />
            <mxPoint as="offset" />
          </mxGeometry>
        </mxCell>
        <mxCell id="yx-5aPdiAHtvrQA10NPm-6" value="&lt;b&gt;ENUNCIADO:&lt;br&gt;&lt;/b&gt;" style="text;html=1;strokeColor=#d79b00;fillColor=#ffcd28;align=center;verticalAlign=middle;whiteSpace=wrap;rounded=0;gradientColor=#ffa500;" vertex="1" parent="1">
          <mxGeometry x="30" y="340" width="130" height="50" as="geometry" />
        </mxCell>
        <mxCell id="RD-NrrCFsF6A7eQp13tK-1" value="" style="shape=image;verticalLabelPosition=bottom;labelBackgroundColor=default;verticalAlign=top;aspect=fixed;imageAspect=0;image=data:image/png,iVBORw0KGgoAAAANSUhEUgAAApUAAAESCAYAAACsDC5aAAAgAElEQVR4Ae2dbag911XGE2uDEItGgy8EDS1q+6GKmk+aIhi1BEFiix/UJlWCUkXQxEhQqSYpxpgIIqVfgglKRYOVgElVUKqtIcGX+geRJAQ0Jh9KqW2gGF8j2vH/u/G5WXf/Z+bsde6cObNnnoF7Z2a/rJdnP2vtdebcc+5ll112WecfY2AOmAPmgDlgDpgD5oA5cE4OGMBzAuii3C9MzAFzwBwwB8wBc8AccEHlotocMAfMAXPAHDAHzAFzYAIOGMQJQPSrE79CNQfMAXPAHDAHzIGtc8BFpYtKc8AcMAfMAXPAHDAHzIFzc+DcArZeldt/vzI1B8wBc8AcMAfMAXPAVbmLanPAHDAHzAFzwBwwB8yBCThgECcA0a9O/ArVHDAHzAFzwBwwB7bOAReVLirNAXPAHDAHzAFzwBwwB87NgXML2HpVbv/9ytQcMAfMAXPAHDAHzIFMVd75MAJGYBMIZPKCx277hfkmAsJOGgEjUFsw1ydEMPUGUo+XsTJWLXLAcW7eZnhrvpgvGb54bJt8ScR5vYMJoS4+/TaAOdAoBxzn9TnRG+Rl0MWx3mism7+O9VoOJOK8HtSEUCcZJxlzoFEOOM7rc2JtQl7zOPPFfFkzv+3bq/xOxHl9QCSEuqBotKBwANXHw1qxcpybAxlumy/mS4YvHtsmXxJxXu9gQqiLSheV5kCjHHCc1+dEb5B++9sccLxsgQOJfaGeEAmhLigaLSi2EBz2cTzmHefj+Jg/Z/ExX87iYX4YjzVyIBHn9QRICHVR6aLSHGiUA47z+py4xs0j65P5Mj9f3ve+93UXLlzozbG0059dx1bGb9n3Y65RIs7rAyIhdLWEPuaiHkr3M888033kIx/xmjVaBE7NC8d5fU6cGvsW5Zkv/Xyh+PnMZz7T3XLLLZPn1kxhhX7smKvQRM8rr7wCLbqHHnroqL4rnm644YbuE5/4xCX7HNi8/PLLJ7bql/ZCzjrUJnlbPINFpd/9AdE3OSG0VrnHLaCQcVFZHwN9cbG2Nse5+ZDhtPnSz5elFJWZtZxiLPvJIYpJ2ZYpqOOc559/vsM2Cky1lwW3ikzZTzHpgvJVfifivD8gBHo8J4SeLlqc7+t6rOfEykXlMtdlTg5EXY5z8yHyYde1+dLPlxaLyrGCbRcP6Kdgo3hDTs34fcaM2Tj01r+Kw7LgLYtK7In7oebtY+fa5iTivD8g+gBJCD0Yofrsclv9GhIwOng7gCQQg4iA1VsXjNOrNL19oLm8ZUBA6pWd2iXTa1K/JkvDirVcmk22Z7l8Ml8uOymiYt7kSRe5NL79TS7VwVgVXoyNh3JuHE+/np4RC5nCqiycyPdPPfXUaZ6XLUN2xD1BY2UDBSSyOJ5++ukzbyVrL4h7jvYNxXPs0/hyrxEempPxnTn4j2zO+IhOySqx4R4bhTW6S/2au7Uza1zpc32ySgitVe5xF0lfuVCpcQQOwUBwKFi5jwElvRqre53HglFj+oIuvlod0qn5Ph9m/c+Dq+N8eWtynvU89Nwt8SUWIcqbsS1iTfETi8rYp+Im5srYH3NvbNd1prAq7cNu7QnIizladklPaUf0iWuKTOZr/JA/6o/7RdSrfs7Yp6JOBabu6c/4zvjoU+kP9+XfVEZd0V7JKfGMtq/5OhHn9Qk0IfSUZGsGeam+KdkRBEoefcEp+zWeeyUK1ppDr0wVfLrXXI0vX4FGfUPJQzJ8ro/BObBi3efQYx3LWvd912MrfInFRMyZMc9GDMmNsagkD8ZDuVntyIzzueegP7ZznSmsot3MjbZLFk8cydkqnKSP+/LQHlD6xxxklG9/yw/J4T7uD9LFWfuMxuocMcj4jsxSPzLxS/rGPsSE3qhba3377bfP+uGniNGxrsGtUnd9YksIrVXucRdJX7lQVeMUlAQCwaTENRTE6GYc48vkU94zVnLKIlJ6S30KynL8lD5b1rQccpxPi+fa+bkVvlBQUFBxJp+p2FChQW6Max2LrnJMec882jgkV7K456BfbZnCqszj5PtS1lhRqZwu3Tpjg+apDQxiUYnt6FO/7rWPRDsYU9qqefGc9R37kSsZ6JRNu/RhLz9xLmt/zz33nOGA+td8hoOV/tUn0ITQWuUedzGQKhcqNU6FIgGkpKCALvVpbEyCjGGuXpXGOWXiUB8Biq777rvvNLEM6dQcnw+z/ufB1XG+vDU5z3oeeu6W+BKLEOXN2Baxjvm0zIPMVV6Oc2LBE9uZz4/asoVVfBqHbvREWSoOS/34RhEVx/fNU1u5Nwgj+lVI0sZ9iYlk0K8xaovnjO99OuJ6xeuoQ9cRd2Gza47mru2ciPP6BJoQekrYtQHbsj8KataRQ0ktBj5BpINEo1edBFQ8FPRxPP3ct4yRbfe/3TMH6vcEsOLYOmZlfuQ+FpVl7uXDLeTWO+644yQPn4B48ZdexKuYU3v5Tk+msCqLIHI39mnNkKWiMupVLqcfu3Ro34jzJKssKqM8ZOC39o4SE8kt24WJdNT6LjnRV8nQnldio37OcW8TFrF/a9esf6XP9QkkIbRWucddJG/lQnmcsZqFA45zx2QmJ5kv8/OltrDKrGMrY7fs+zHXKBHn9QGREDrL5ndMgK27njfGqi2sHOdtrdex48t8mZ8vWy6stuz7MWM9Eef1AZEQ6qLST9XMgUY54Divz4nHTPJL0W2+mC9L4aLtOBwXE3Feb0RCqAuKRgsKB2V9PKwVK8e5OZDhtvlivmT44rFt8iUR5/UOJoS6qHRRaQ40ygHHeX1O9AbpD+qYA46XLXAgsS/UEyIh1AVFowXFFoLDPo7HvON8HB/z5yw+5stZPMwP47FGDiTivJ4ACaEuKg9QVOorEsqvl4DA+uoGfV3DsUnNH1PrayqObYv118c4WDnOc3htnV/my/H5ovx/Erz//0tf0QM/+UqcKfYGfXVS31fs0FZ+/c/WY2NN/ifivD4gEkJdVB6oqKRQ6/syWgL6pZdemiRxTBEILirr42oKvKeU4Thvd+2m5EGtLPPl+Hzp+75FisgpCsnIA4pK9p/ygYH0sweR++McXx+fH1OsQSLO6x1OCDWpDlhUxi+QhSw8wSTIy/YpiLSvDBeV9XG1L8aHmuc4b3ftDsWJMbnmy/H5oqIuFnQUgIcoKtlr+Cl19bWP8cZ9x+dNZg0ScV7vWEKoi8oDFpUkC97aIJFAChVwjzzyyJkkQkLREd8y56nmhQsXTl5x0l++ZYE82vr6hmTqrfmTSRd/KcHQjo1620T93NOOD/jy+OOPn3RNnQQzQeOxr+YCFsJY1OfFrWNlvhyfK2VRqXyst6k5K7dqvyBH61AfXI65mn2DvUL5mjNjkSfZzKGN/ScWm3EfQY/GK+cjV8eQ/jhv63F2bP9Zi0ob6gMiIbRWucddDMjKhTp9IkmwEoQKdAW4Ar5PnsbQx3UsMpmnewU8Z8aii/8bq/sou5QZEwPX+pueUgb36OOMXK7j3KjD1/X8mAorx/n8mE+1dseQY74cny/Ko6yFDu0PcIJcrRxL3uWhgfqZq/8NHq+ZV47VHkM7BSTFK3PI9bfffvuZojJyUWM480POxybGxAKY61iYRhm+Pi7P4FXlGtQbmhBaq9zjLgZV5UKdKSoV3DEI1SZ5JJF4KKnEBMPYUkacw3V8ktknU0lBSQqZMemU+uhHDuNJMEpostvnek4cAivW/BByLfO463oo/M2X469rXx4lx+qFfczB5ObyQYHyMTlZc8QX9XGvPabcMxgT2xirghR+cGgf6bNVcpmHrRzIlA0+H59jrEnlOtQbmxBaq9zjLgZR5UKdCVoCk+AnGHkbARllYMagjEklXjMvJgNklElF9pXzdH/eohJ9+CM9Ptdz4hBYOc6Pi/8h1vSQMs2X4/Olr1CLxaNyNTyIL/jFCxWOfflffYwt9xjksv8gM+4jpT3xPl5Lf5Qb2+AWOtTm8/G4lojzeiMTQk2CiwE4dQDEoEU2wc5BQHIfA5M+BaOKPtoYR7ve7tY83RPwXEsm/foZk0mf5EuHitOY3OjjHh2c0eei8jWMhfUxz47zZa3HMblQo9t8OT5f+go18rxyMNfKz+RdvXWt9aWPnB9zM33lfhD3GMby9FE64v5EX3wayrz4pJL8X+5PupdNnKO+2O7r+TmXiPN64xJCTwsRL349vruwikHL2L7AVeJQMmDNCOb4yXCCl1eXBLb6kSX9ShYnnRd/KWmMyVThqjkkrZi4SA7x4B59yHRROR1HtIbnObNO55nvuctaz0Ovh/ly/PWOuVl5lvxOO+tfW1QyNuZqZJCfla85a49hLNcqBsv9iXYd2g/YW5Tz+z6oU+4jKkQPzWHL383hRJzvFibAE0K9KV0MOOG2tDPBrkSwNNtsz/F54zg//hq0FAfmy7r5oqeYU3FSRaUK3qnkWs5heZiI83pDEkIXW1CZeK++anVRWc/7rXHGcW5uZDhvvqyXLzxZ5GllfCcrw42+sS4q2+RLIs7rHUwIdVHpJ5XmwII50Jfs1eY4r8+JwmzLZ/NlPXwp335mbad+AOGisk2+JOK83sGEUBcUjRYUW94c7furucBxXp8TzRn/r3hzwPGyBQ4k9oV6QiSEuqh0UWkONMoBx3l9TtzCZrLLR/PFfNnFEfe3z5FEnNc7i1AfRsAIrBeBu++++8Q5bwL1eXHrWK03GuyZETACIJDcF+qTJ8K3nkDtfz1fjFWbWDnO21y3Y8Wb+WK+HIt71jsf9xJxXm9UQqiLz0bf+nSQ1sfDWrFynJsDGW6bL+ZLhi8e2yZfEnFe72BCqItKF5XmQKMc2Eqc61Oo5Zcw82lXHfGLnst/CqBPxQ7J0eYZv0wauZqn/tbP+NS6D7a/vg4wVtvEKhHn9QAlhDrJNFpQOGHUx8NasdpKnFMM8h18KvL67vlXc33f0adCknM5T1/Lgtzyv4yskTNb4csa184+Od/XciAR5/WgJoS6qHRRaQ40yoE1xTmFnQ79qzklUYrBWDSWBaCKQ80rn1TqX8iVcpAf/52dbIhPPWXDGs5r4ssa1sM+1Nc0xqoeq0ScH0TomYKCZMrB/xB98cUXT58MjC0oc/QEoRwXE3bZ5/v69TRWxqqPA4nkcSbO+2QtuY1iMP7f+bGisiwc4328lr99OYo2jqG8prnHPt91113dnXfeWb22+/LF+4Lzz7G5bv31HEzE+UGEniYkXt3zz+RJ2JkFdFFZvy4ZXD3WuO7iQCJ5pGJ6l965+zNFJXmMp5rMwU4KxPikMr6NriecfcVjX7E5t9+79L3lLW/pHnvsse7JJ5/srr/++p1rvA9fvC84D+3iofuXxZFEnNcbnhB6moj2TaK1RSUJnLFK9pGI6O5L7HGMr+vX31htA6t94rxFbmSKSvwjl+jghTI/FEeSU37ghzkqMDVPhWgLeN16660nhfT999/fXX755ac5vbR9H754X9hGLim54vt21z0R5/VOJoSeJKCYhJmrRBILPb0FQj/XIl0sKknaPAnQQZ/GktRJ1MjWXM6l7o997GNn/n6KMczh7a8PfvCDJxsEm4SOaGO5McS+qNPX9VwyVsvFihjw+tSvj4pKzmvD7eqrr+4efvjh7rnnnutuuummXv+yfClzs/eFeq6tjV/2p521T8R5vVMJoafJRwlD5InFIsklFmixb+haBZ6KSsntO5fyudc8ycG+sjBVEUsfcpmj6zivT6fb6vlkrJaJ1T5xvuW1XHNRqXWloKSwpMCk0FQ753344n1hmbEf19XXXqPIgUSc1wPXJ5TkoCMWiDJmKHmoONNcnVX0cUYeCTt+QhO5pUzpKs9lURmTP4Wk/kYqXkuG5qrAlH069/mquT7Xc8pYLQ8rOO51qV+XmFfWjBtvgT/wwAMneZO3xuVrH1+8L9TzRzj6bMyWzIG+OB+wt34hE0JPE05ZAKpYVFFJf59hGjdlUYke5KKTopBr2nYVlWVR22ev2+p5ZKyWjdU+ce41XfaaTrk+fHiHD/HwYZ63vvWt0KU3h4/p9L6wHb6M8cB97fAgEef1TiWEniaZoeQBmSjs+JtGCsySXCoqVXzGJ4P0qSAs58V75sR59FFAopMfrtUW/y5TTydV8Nbqi7p9Xc8rY7UsrIhzH0agBoEXXnjhZFg2hr0vLCvms+vn8dtbPwK9ct3rwUkIPVU+ljwwkIItHrGQU0GoIk/jYpFHYRgLwui0+pgnuSpSYzHLOH2aUzqkG3mao76WPsEZ8fB1Pde3jBU837L/9n08Tm677baTt8AffPDB7tprrz1Ji1nMvC+MY5zF0+ON56E5kNgX6hcjIXTRmxJFaSwaVVT2PTE99EJZfj3/jNU8WK0lzs2Xafly8803d88++2z36KOPdtddd91pjl8LX7wvTMsXx9+68EzEeb3jCaGnCWdpxOIVMl9PxNNP2eaisp4Dwszn9WK2hjg3P6fj54033tg98cQTJz9cl9iugS/eF6bjS8kP368D20Sc1zucEHpJ4jk2seJb6HorXDa5qKzngDDzeb2YtRzn5uVZXpL3+FOf+CK6FiOeRvJUkqeTPKUcmtcyX7wvnOXL0Bq73Tgl4rwerITQwQRkctbjbayM1TE44DhfD+/4kx7e1s0UlfydJH8vybde8PeTuzhovqyHL7vW2v3bXetEnNeDlBC6MxGZnPW4GytjNScHHOft8413X/hAYXmU79L08eruu+/u7r333u7KK6+syuPmS/t86eOB27yukQOJOK8HrkxQvjcCRmBdCFBQcMRk4uv6HLk0rPhAIkf8YOIuG6+44orU+p8o8C8jYARWi0ByX6hPmCC2KyG5vx5PY2WslsgBx/k6eKkPn9xzzz0nH06seUq5Dx/Nl3XwZZ+195ztrH0izutBSQh18Xnx+y0dcMagRQ44zs3bDG/NF/MlwxePbZMviTivdzAh1AWVi0pzoFEOOM7rc6I3yMugi2O90Vg3fx3rtRxIxHk9qAmhTjJOMuZAoxxwnNfnxNqEvOZx5ov5smZ+27dX+Z2I8/qASAh1QZEsKPSvIA/1d09bDAywjP+Oc4sY7OOz47w+J+6D79rmmC/r4Asf5uLrp9bGz2P5s7Y9PRHn9QGREHpQYuoTjdijIxZjfCcb37HG12ocmlDlv/baVx/2jwX0rv5aveiIWMV54AVume+0i/O5nuqL5FnjoU+sZtZ3zN/S9pJXY+vRNzczvpy/pHtiakn22Jb6HH0MrA7FF+J83y9uPyQO5M/yKHMVuaBsO4RN6Jgi7+zCeqq8PiYnk9fHsASPoT1ubF7s24VH7fqO+Rv1cV3yKvNAZCrsSpvifSLO6xNWQuhBN6UykACUf704RxBHkKe83hUIEG6K5DGmhwBYW1FZixvjMkE85dovTdZS4nxpuNie/r3iUHzZtbEfaz3KXKEnUlPk52P6NGZ/pjga82FMzlSF0dgeN2Zb7NvFPXTU1Btw4/nnn9/5gGuKvTfaf4jrRJz3J4o+o8aEjpGlT1am7cKFC2cWpSwqkdXCogz5XBNMtcXRkA61jwXcFBhOxQPWeChoa/CSv2VyKLmkcX2cUh/YD9miMWs6j8X5mvy0L/W5fwyrMb6cJx+UsVvacKy4LItK7MrkpNKPJdzvKpLOs47RvzE5U2E4tsdFW8aud3FvF15RdtzL8J89KPZz3ccpjaEwRR82qe0Y57E4L+ypTyxjQsfIIoWAq4OnQgDFPPo56z9AcOZerwA1h6eRANtXAGgsixPJKXI8/vjjJ2LQOaRPdiJDh2yhj7k69FSLNhUcsqEcw1zGQCZ80IEe2VI+IcTuOBY9sr20RbhIFq+MsIV72SRdyHjqqadOsS7nRjsiDnEccvUj+fIJ3VF/XFfGCCvmY4vs4p5r4VriFdchri/zoo44jj7s0ytFYRptYEyUEe2hnbHxoJ82MMRW6aNN64M9wkFz1YdMZOgAV3hR6pVdxzhj2zH0WudrcdUSFmN8USwoH/X5FeMBWYoF5W7iQ4fiqC8ukR1lxZzF+KH8y7yhHCL7iXcO5KBDeSr6g2300xavaSvzRZk3Na+0BZ3CI/rWl3eYG8fEuX1YygfZIj3IURsyOJTPtI4RL/qj/fgeZXEtXcITeTo0t8zrpQ0ah33xJ/rMmqNL+ksZsoP5yIsysU37Xx9e4h5z4/rqXv7EcfRhi9rQF3lJPz/ooz3aE9slG/vvu+++Ex9jTROx67M9+l1iQlxgn9ZWNpVnbCjbBu7PLtDAoBNhY0JFliHD4oKhA6AVGAKBM31xLPJUFMg2gNciqU1AIbcEmMWK48f0Rd2SzblPJ+3IFRHitfqklzGRTNiphe7DLsqSb1GWrmXbkCzNRZ9s0ti+uQqq0qZoL/P0U+KCXZIf14Hx3INBtEXX9EcdfXgJvyh3bC2R2ccf2V6eZR88L/HVGjOHa3FXMiIOYEe/fCvtBWPGMLccK3nHPI/F+THtsu7X4m5JWIzxpcwjpd30K+fQxz1xzlnxqNhTLtM9Z11rLnsF47jflU9inuIafZIjm7CDWI56olzG64ecoXHxmrYyX9Cv/CC/uI+5QnJLm2I7spWr9sESnX05MspFHzoiXjGHaZ3kT/SNubRrrvDU2Di39D3KiRhF/8s5pXxkaE3kB21c0x77In6yS/3Sr/sot5QT++S/dEbby2vpIJ6EF2OwJfJTtkWZEQf1y1bJFea0x7lcR32lXbofi3ON+f/za0FRdJwGi9r7hGJoeWjz1zzOpSM4qmKxT4aCMI6TvFIW7RG4EuAYAIwd07dLtmzQmQVhTtSpPkiqJFfKZbyIEscxt08WNqMr+ik9Y7LK8bJ3aK6SKfaWR7mupWxkRl+wuSQrcvlhLLYwRrbE8SVe6BJfIj7MKQ9xB7lxnvTsOssv7GNstFn36pOsaG9MTuqXr9HHsk/3xz6D57FtsP76vHxsrPr40heXZf7A7hg38kOxEuNcfchV7PXFZZkLpLPUE3Nmn63KIX2x3BfD2Idd6Cmv+3RjV3kwbkh2KUN4xPZ4rf4xLBnPT5kjlf+wRXKmyut9eMqOuN5cD2Ekmzj34TXmc/RDeiUv2hZtUT+6xD2ttbAq11LjZGO8l7yxM+O1d0auMqfPttgWr6VDvsreobXV+L4zPva197TVJ68xoXGxepRckjwikfuIIRlxnNoAqFykIUKUC4KMMX19svsWQrZgB3P6FjJiokXVvGhXvKa/T5YI3WdLnB91IqscL3v77IgY9uGgOTqXsmmP+vtwjjhgC2MkL44v9aNrqKhU8ElOPMd5sX3XdfQj2sy88l5t4mScKz3yNfpY9un+2OexOD+2bdZfn6/nwmqML32xEO0q45w+xcpYHmRcGYd9sqSrHBtzZl9Mal6f/X3jS1vxAZ19dpZjpYtzn2zJUH6J46PP8VpjIpZ6iKG+iInG0XfIvA6eenBR2hFxidca13fuw0u+9MmI6xn9R3a0rW8uurQGnJnfh1VpZ5xX9g3do1/rFa8ZX96rTQ/P+vrla5+9EZMhe2gfi/NiXn2SGhO6yzCA1atGDGA895wBgWvGFMZd8iqKfgDS4koWryxp5x55YwCP6cOekvR9OmnjR+Qqr3UvO7WomhcXPtpLvxZe/vTJklz6GKfCqrSfe7ARtszT2LG5zNP6MG7oB3lDtpR+lbgzr/RRttEe+RL5E+WWMks76Vdwln1j9+iXX1xHO8t75MTxYKcn1NKBLHwocd1lv+bPeR6L8zntsK7huFsSNmN86YuFaDv9Md/G+FBsKPbKvFjGYZwbdXBdjo15QXqUI+PcPvsZpzzFWM1XvqAt5rZSt/rjeOlElvYutXEucVIfsiWnHBPxiP7GucznPtqre8nlnnHyubRR/gu/Plmai01xP4pzS7nIiTbI7niOPtIe5XHfZ4tkRuwYy732HMkRPiX3otyITbRN1/RLjtp2nSPHsCXuYeU9smgTb/r6ow3YLgyYu8t+2ToW5xrz/+f6xJUQ2luEYLwOAAAoSIEhIpv6RUL6NE8LrnuN5SxCM34XwLX6kKu3QUQq2jhkXyTX0Bj5gN1cy8ZIFOSUPuCvjpII3OsQLpId+9BBgSPZ/FEuf+CLXxxxLmsQEzxz4oFcdHCWL6XP6IoFVbmumoecso8/ZtdcxmGnMNA6CDsFUJ8crQ19+KB7eIG8aANj+KEtHppTykceY0sZ3Asf/JIfkk+f1iDiij3oUp/GH/MMDsfUb931OXkJWJ2XLzEekKVYIF6JG31Ihj7FGH7H/KE5pSyNL2O23HijLPQo/vtiudTB+DIfoFdtpW5sL/NmzG+lfPmGHB0aT5t8RO7Q3NJfxka7mBfllPZNldfBUx8MkS/YgT3YGPN6aYN8RsbQPlXm01KG1lX6tL9gC3bRjx38gMcQ9+L6Iov7eGjNpF/3+IpO5DNPP+W6lWMkH/v0QZ0og2thx7X8kPy41rJJ9pZrqznlmfFl28D9a44NDDgVlBB6OmdIJo7hDAQZGrOldkgVCb9U31tbN4JRAb1UTJdm45RxvlTMbVd93t+FlfkyHZa7sD5UfyxKDqVjKrnkc3LmVPIOKafvRckh9e0ju9bGRJzXB0RC6M4FhxhlNb4PIGuZo1cPSy+AICCv6FrAHSyXXqiDJ3HAeSmYThnnS/HJdtTn+SxW5svhsM2uxXnG8zSrhWKN/WdJ+XII81b2dNa8Zt0TcV4fEAmhl2yQvBJi84zH0guoIbK4vZ4zxuosVko0MQ709s9SsDpPnC/FB9txlneHxMN8mQ/rQ66jZW9jHam74lH7cC8R5/VAJoReUlSasPU4GytjdUwOOM7Nvwz/zBfzJcMXj22TL4k4r3cwIdRFZfgjXAdRPceM1fGxcpwffw1aigPzxXxpia+2dT++JuK8XkFCqItKF5XmQKMccJzX50RvUKnvr3NOaDQnmOfOCYl9oR6shFAnDycPc6BRDjjO63OiN1sXleaA42ULHEjsC/WESOcKAboAACAASURBVAh1QdFoQbGF4LCP4zHvOB/Hx/w5i4/5chYP88N4rJEDiTivJ0BCqItKF5XmQKMccJzX58Q1bh5Zn8wX8yXLGY9vjzOJOK93LiHUBUWjBYWDvT4e1oqV49wcyHDbfDFfMnzx2Db5kojzegcTQl1Uuqg0BxrlgOO8Pid6g/TfVJoDjpctcCCxL9QTIiHUBUWjBcUWgsM+jse843wcH/PnLD7my1k8zA/jsUYOJOK8ngAJoS4qXVSaA41ywHFenxPXuHlkfTJfzJcsZzy+Pc4k4rzeuYRQFxSNFhQO9vp4WCtWjnNzIMNt88V8yfDFY9vkSyLO6x1MCHVR6aLSHGiUA47z+pzoDdJ/U2kOOF62wIHEvlBPiIRQFxSNFhRbCA77OB7zjvNxfMyfs/iYL2fxMD+Mxxo5kIjzegIkhLqodFFpDjTKAcd5fU5c4+aR9cl8MV+ynPH49jiTiPN65xJCXVA0WlA42OvjYa1YOc7NgQy3zRfzJcMXj22TL4k4r3cwIdRFpYtKc6BRDjjO63OiN0j/TaU54HjZAgcS+0I9IRJCXVA0WlBsITjs43jMO87H8TF/zuJjvpzFw/wwHmvkQCLO6wmQEOqi0kWlOdAoBxzn9TlxjZtH1ifzxXzJcsbj2+NMIs7rnUsIdUHRaEHhYK+Ph7Vi5Tg3BzLcNl/MlwxfPLZNviTivN7BhFAXlS4qzYFGOeA4r8+J3iD9N5XmgONlCxxI7Av1hEgIdUHRaEGxheCwj+Mx7zgfx8f8OYuP+XIWD/PDeKyRA4k4rydAQqiLSheV5kCjHHCc1+fENW0eX/iFX7hXzJov2+TLmrhvX3ZzOBHnu4UJ8ITQvZKT9PhcvybGylhNzQHH+fY49cY3vrH77Gc/2/3bv/1b9/GPf7z71V/91e6bvumbqvK4+bI9vkydcyxv+RxKxHm9MwmhVcnIRKrH3lgZq7k44DjfJtdefPHF7u/+7u+6P/mTP+k+9alPdZ/73Oe6V155pfuHf/iH7rd/+7e7d77znb153XzZJl/mykfWswx+JeK83uCE0N7kY3LUY22sjNWxOOA43yb33vve93b/+q//eiZ3U0hSUFJYUmBSaFJwUnjedttt3TXXXANdzsw5Fm+td5u89brPs+6JOK836CR7+JcRMAKrR8CJuj4vrgmr//7v/+5+6Id+aLBI5C1x3hr/27/925MikyLUhxEwAttAoDLXbTN5VoIzmFw9f37e3H333V6PRj/843iZP172wfyjH/3oyVvgu+Zee+21HQXo7/7u7zomHZPmgDkQOdBGstuV5NzvdTQHzAFz4Hwc+PZv//aTt7h34fjJT36y+8u//Mu4kfjahYU5YA7AgfMlIc83fuaAOWAOrIcDn/70p7sPfOADgwUCxSRFpdd8PWvutfRaTsgBgzkhmE60fpFiDpgDzXHgiiuu6G655Zbuwx/+cPehD32oo7Dsy4sPPfTQyd9S8vZ3X7/bvJ+aA5vnwOYBcHJ0EWAOmAOb5MB3f/d3d7/1W7/V/ed//mf32GOPde9617u6z//8zz95C5y3wmOB8CM/8iMnn0bgHNt97T3UHDAHAgcMRgDDydLFhTlgDmyCAz/3cz/XPfnkk91P/uRPdl/+5V9+xme+r5IP7Sg38mSSrxTiSaXafPbeaQ6YAz0cMCg9oDhxLrCw8Ke/HauO1ek48KY3vWkwz/3wD//wyae7hbc/mDMd7sLUZ2O6Ug54YVe6sIMbRqv+8t5bq7bbbueZuTlw1VVXde95z3u6P//zP98rbvgOSr4Q3R/MMXfn5q71Nc25po3fK1masG2uuYvKNtfN8Tbvun3f933fyYdt/vd//7d75JFHune84x175cnf//3f715++WV/MGeB79o4puaNKeOdwjs1eK/k5AUxxlNwwEWleTQFj9Ysg7+R/NM//dOOD9O84Q1vOFe+fuMb39h99rOf7X72Z3/2XHLWjLd9c04yBy7hwCUNTiB+ZbpIDriodKw6gY9zgELQGI1jZHyMjzlwUA4cVLgTnAvUyTjgotKxuvXN4Jprruluv/327td+7dcmi6utY2r/nVfMgUk5MKkwJzoXkQfjgD/97VjdYvL/gi/4gu7d735394d/+IcdH555+OGHu7e//e0Hi7MtYmyfnVvMgck4MJkgJzkXlOaAOWAOTMgBvh/yv/7rv7o/+IM/6H7wB3+we93rXmd8J8TXhYT3f3Ngcg5MLtBJz0nPHDAHzIGJOPBlX/ZlxnIiLF1AeL83Bw7OgYMrcEJ0QjQHzAFzYIADX/u1X3vyfZA33HCDMRrAyIWA92lzoBkONGOoE64TrjlgDqyCA1/yJV/S/diP/djJv0L853/+5+79739/97a3vW0Vvnnz955qDmyaA5t23kncRYo5YA7MyoGf+Imf6P7nf/6n+53f+Z3upptumlW3N3vvd+aAOXBgDhjgAwPsTWOiosWf/nasriFWr7766u7KK690XpgoL6yBE/bBuW1FHPBirmgxV71R+XsqHautxOo3fuM3dr/8y7+86nhsZS1sp/OGOTArB2ZV5iTrV+d7c8BFpWN1yZvDV33VV3U/8zM/0/3N3/xN90//9E/dr/zKr3Tf/M3fvDffl+yrbXMsmgPmwAAHDMwAMN4MFlYAu6h0rC41Vv/4j/+4+5d/+ZfuN37jN7rv+q7vcu5YWO5YKm9sl3PaCjngRV3hoq5yU3NR6Vhdaqx+//d/f3f55ZevMu6Wirntcj4wBxbJgUUa5eTsV/qXcMBFpWP1mJvIt37rt3a//uu/fgkvj2mTdTsmzAFzYGEc8IIsbEG8aQ0U1P70t2N17lh985vf3P3iL/5i9/TTT5/8/MIv/EL3eZ/3eY7RgRide32szznBHFgcBxZnkBO2E7Y5YA4clQNXXXVV9xd/8RfdJz/5yZOnkzyl9OblvcIcMAfMgZ0c2DnAydQbvDlgDmyOA9/zPd+zOZ+9YXo/NAfMgXNywACeE0BvPC64zIFGOcAntb/3e7/X69fo+jl3e/82BxbHgcUZ5ATvBG8OmAMH4wDfHcl3SPJdkn/913/d3XHHHQfT5Q3P+4s5YA5sjANe8I0tuDdQF2yb5MAtt9zSffzjH+/+8R//8eS/3fBfbxz7zv/mgDlgDkzKgUmFOUm7YDkYB/zpb8fqeZL/FVdc0X3Hd3zHwfh5Hts819w2B8yBlXDAC7mShVz9ZunvqXSs1sTqTTfd1L3+9a9ffTzUYOExjhlzwByYmQMGfGbAvdnt+TTXRaVjdShW3/a2t3Xvf//7u0996lPdRz/60e5d73qX42zPOBvC2O2OP3PAHKjggEGqAMkb1AI2KBeVjtUyVu+6667umWee6f7+7/++e+9739t93dd9nWN1AbFarpPvHbvmwGY4sBlHvdk0vtm4qHSslhvTO97xju5bvuVbHNuNx3a5rr53rJsDzXKgWcO9kWxsI3FRuc1Yfd3rXtf9wA/8gON9Y/HuomKb8e51b37dm3fAm81GNht/+ntbsfr2t7+9e+ihh7qXX365+6M/+qPui7/4ix3rG4l1FxbbinWv96rWe1XOeNNpfNOhcHzzm99cvY7XXnttxxy+LsaJqf1Y5qnk/fff37344ovdX/3VX3U//dM/3V1zzTVe28bj2rHZfmx6Db2GlRwwUJVAeWObYWO78847u8cee6wa6wcffLC79957q8d7rZcf77/0S7/UfcM3fIPXdIZ4czwsPx68Rl6jxjjgBWtswVa/2T755JPdrbfeutPP6667rvvMZz7TXXnllTvHeo2XFedveMMbune/+91eNxeO5oA5YA6siwPL2my8+Xs9rr/++pNi8eqrrx5NNo8++mh32223jY4xn5bFJz6t/cgjj3Sf+9znug996ENeu3VtJl5Pr6c5YA4sa9NxEeD1gAMPPPBA9/DDDw8mqBtvvLF79tlnB/vNo+Xw6Nu+7du6D3zgA92nP/3p7s/+7M+697znPd1VV13ltfPmYw6YA+bA+jiwnM3HhYDXQhy4/PLLu+eee67jX+6pLX76+4knnuhuvvnm0z6N8XmZHPr5n//57mu+5mu8XuvbQLymXlNzwByIHFjmJuTiwOtCQUlhSYEJH/Q9lRSTFJXmyLI48hVf8RXdl37pl3pdvMGYA+aAObBdDixrY3Kh4PWIHOAtcL5iJhaVvO3N299xnK+Pw5vXv/71J/9n+/HHH+/+4z/+o/vxH/9xr8t2NxOvvdfeHDAHjrMZuQgw7jUc4MM6fMKbD+9w8MEcPqBTM9djDscxivrf/M3f7P793/+9+/CHP3zypwj+rtDD4W0uG1tzwBxohANeqEYWarOFFF8vxNcMcVBg8lVCXrPjxu13fud3dj/1Uz/VfeVXfqXXwk8mzAFzwBwwB8SB425OLg6Mfw0H+EJ0Dr7svGa8x0zDqze96U3G25uFOWAOmAPmQC0Hptl8vIkbx0Ny4Ou//uu7F154oePfMh5Sj2Vf1n3RF31R96M/+qPdRz7yke6ll17qvvqrv9qYe0MxB8wBc8AcqOGAi6GhQuLk0Zh/GYENIvB7v/d73Tvf+c6aBOIxG99oNhgedtkIbBKBoVqpaHdRWQByuknCmqE+t5s3a+WAeW9uZ7htvpgvGb54bJt8ScR5mw7OQcwEiC4+N/60Zg4+zqXDvHdOzHDNfDFfMnzx2Db5kojzNh2cg5gJEF1UuqhcDQfMe+fETH41X8yXDF88tk2+JOK8TQfnIGYCxNUUFHPgah3Ljjnzftnrs7T4MV/Ml6Vx0vZMz8lEnE+vfC0LmgDRRaWfVK6GA+a9c2Imh5sv5kuGLx7bJl8Scd6mg3MQMwHiagqKOXC1jmXHnHm/7PVZWvyYL+bL0jhpe6bnZCLOp1e+lgVNgOii0k8qV8MB8945MZPDzZf5+fK+972vu3DhQm/OoZ3+zBq2NHbLvh9znRJxPn9AHBOYjO4EiKsN4Axe2bHPPPPMyRdsZ+d5/GFj1rw/LL5r46/50s8Xih/+rewtt9wy+f6QKazQjx1zFZroeeWVV6BF99BDDx3Vd8XaDTfc0H3iE5+4ZL8Bm5dffvnEVv3inz4wj7MOtUneFs9gUel3f0BUTq5V0uS4BIhN+nfsNXZRuczYM++XuS7Hjtch/eZLP1+WUlQOrduh2snrhygmZW+moI5znn/++Q7bKDDVXhbcKjJlP8WkC8pX+Z2I8/6AEOhbPidAPCXplvHK+u6icpmxZ94vc12y8TXXePOlny8tFpVjBVsNnyjYKN6QUzN+nzFjNg699a/isCx4y6ISe+K+pHn72Lm2OYk47w+ItQGyjz8JEA8WQPvYvcQ5BKoO3oYg+cTgJVHoLRPG6dWh3rbQXN6qIBHoFaXaJXOJvrdmE5i2ZrPtPV4eN18uOymiYv7iSRc5Lb79TU7TwVgVXoyNh3JfHE+/np7B9UxhVRZO5N2nnnrqNN/KliE7Ym7WWNlAAYksjqeffvrMW8nKyTH3K38rXmOfxpc5X3hoTsZ35uA/sjnjIzolq8SGe2wU1ugu9Wvu1s6scaXPx0tGlQbWOjL5uASIk+teOjZD9hGwBCFBqSTBfQxkzdVY3es8lgQ0pi/Y46vkIZ2a7/Nw3Jv3w9iYN5disyW+xCJE+Su2RX5Q/MSiMvapuIk5K/bHHBjbdZ0prEr7sFu5GXkxV8ou6SntiD5xTZHJfI0f8kf9MW9HvernjH0q6lRg6p7+jO+Mjz6V/nBf/k1l1BXtlZwSz2j7mq8TcX5pklgzMBnfEiCeBlVG/trGKskSfEpafUlBfms890pQYM6hV8QKet1rrsaXr3yjvqGkJRk+98c++BubfmyMy6W4bIUvsZiIuSvmu8gPclQsKslH8VCOVDsy43zuOeiP7VxnCqtoN3Oj7ZLFE0dypwon6eO+PJSLS/+Yg4zy7W/5ITncxzwtXZyV7zVW54hBxndklvqRiV/SN/YhJvRG3Vrr22+/fdYPP0WMjnUNbpW6L00SlRNrFTQ7LgFisz5OtdZKBgQgQayEOZQ80Ms4xpdJr7xnrOSURaT0lvqUDMrxU/m7ZjnmvXNiht9b4QsFBQUVZ/KKig0VGuSoiFssusox5T3zaOOQXMninoN+tWUKqzKfkndLWWNFpXKrdOuMDZqnNjCIRSW2o0/9ulc+j3YwprRV8+I56zv2I1cy0CmbdunDXn7iXNb+nnvuOcMB9a/5DAcr/XMCHQIqAWIt2Ksfp0KRwFUyUiIpcdbYmHwZw1y9Go5zyoSlPhIDuu67777ThDakU3N8Ho57834YG/PmUmy2xJdYhCh/xbbIj5jXynzEXOXHOCcWPLGd+fyoLVtYxadx6EZPlKXisNSPbxRRcXzfPLWVOVoY0a9CkjbuS0wkg36NUVs8Z3zv0xHXK15HHbqOuAubXXM0d23nRJxfmiTWBsa+/iRAPA3QfXWteZ6SCXhyKJnGhEPw6iDB6dUugRwPJZs4nn7u14zhnL6B55z6rKvtHGy+vPaUESw4yFuxqCxzIB9uIcfdcccdJ/nw1VmX/tmP2st3XDKFVVkEkUNjkYgsFZWMRReHcir9vMjXofwd5ymGy6IyykMGfiuHl5hIbtlePmCo9V1yoq+yU3tPiY36Occ9RljE/q1ds/6VPred0CqdrAXjzLgEiGfmHdImyzZfD80B894cy3DMfJmfL7WFVWYdWxm7Zd+PuUaJOJ8/II4JTEZ3AkQXlRdf2WWw9djl4mXeL3dtlhg35sv8fNlyYbVl348Z/4k4nz8gjglMRncCRBdULipXwwHz3jnRedIcyHDAY9fPl8S+sH4w9iV8AsTVFBT7YuV564kj8349azlHXJov5sscPLOO4/IsEefHNXTJREmA6KLSTypXwwHz3jkxk5fNF/MlwxePbZMviThv08E5iJkAcTUFxRy4WseyY868X/b6LC1+zBfzZWmctD3TczIR59MrX8uCJkA8SFHJVyGUXyXRhy3j9DUNff2Hbiu/RmIfffr6BzDXUeP7Pro0Z+zrJDSGs74WQ195Efv4o3G+8mJNXzkB/tFHXztHjnHAfJmXH+T6eJRfuTO2Vvv01eZJ5fC+vK0cesx9ah/fPec1bifi/LVJBvAsFgkQD7IJX7hw4eT7w/q+ZyuuVetFpRLO3IVZbbLUuJdeeunku+ci9iRJ2ue2Pdow9fWxeT+1P5Z3Nq9NjYf5clh8tV4q2uYuzJT/eAEtW/rOerhAUVnuWeRH8uTctvfZ6bb9+JqI8/0UbGFhEiCOBts+WBHIPBkjOPXFtENypigqSQgEPHqH9Ay1K5nsSjpD89F7jGRTmyy1FhT5sXgcah/ys5X2Y/K+FYxs52v7hvnyGhaH5AW5p+/dkkPqRHZtntQ+EL/gnPlD7Ye22/Kn5WUizqdVvKaFTICYLsR24UQC4UcBGQs2gpxXgzpiUdbXJ12MI+B5u4RDb1OUc5S40K+jfIsl9vEvwJgjGzlLB/MZG214/PHHT3Sjn3+tqOJZY/rOYzLBCBk6ZD9yyj4KQ3CgvUyWUUf0l3GyMRb4Kubxr/RRtghjbGEM+rV2pQ61Mzf60IfHIdvQf0j5lr2unGu+zLOe5K2YZ/riKOYw1iWOL3NhmWMYq4M+9CGvNk8in/xIXmQ+87ARGbQ/8sgjZx4eIF9HbZ4sfYjz+vBw23TcZK0q8ZxOaaXCWsOOPi4B4qS2KjgJRjAl2GNyiMlFQUZbiX8phzExkSBT9yqclAhKWSqgaMcuCkmNpU8FEm3x/8xyT+AzhrnYEBNBOV7+gH1GZomP8KBd19IffZat2FEmQvmovttvv/0kOWpdkItf6Ij6I3axj+voO3N1H8fF+ce4Phbvj+GrdZ4//5sv58dwFw+VF5VHGU/+0UF7mUu5L3NvzFPMV26szenKhZyxIc6L+41yI2OU27BR+kp/NUbjlRe5j3lyTEYp0/fT8jIR59MqXtNCJkC8pKA7Dw4EKgVVPPoKIemIgaZEEufSz1gCOiaVmCDiteQyNh6ygfaYHGIyQZfGRTnSW9rQlyyZVysTu1UYSh/48cpY/1dX/tOvPuTHuYwpj1jUquDED34iXmqTfnyMh7BinK5LH7XmMZlK3txnbJ9bp/W1m4fNl3nWrsydihnayV9juTfmOs2LuXAsN8W5Y3myzNnY1dcm/fTHg3v6dtlCjlRuliyfD8/BRJwf3phWFzwB4qSbcFmkxMCMAS5cCXQFMMUP9/QxL94zBtmaFwujeE1/maDi/VjQx3HSE/3BBtmnftr40T3n6POYzD48lCyzRWVZDMueiI1k81aOsIz+ldjE+3hd+hh1kTSHbNG4Q56PxftD+mTZh8vz5svhsI28JX/05QXl1H3zJLl2LDfFHNunQzbGnK2cyXj+5IcxXCvPl/rifbxmXpQbdYHFEl6Ey6a1nxNxPk9AtAh4AsQzBdF5fI0BHOUo0Agwgol79asoK+fq6RfBzFjGxaSEDN0rCXBmrPRFHRqLvBjM6OGec2kD9/RFG3Qt2bIz+hQTSY3MOFd4yGclMvklP6Lc0k7Zxpk+5nAW/vGVMrqlH1261ljppz3iVuIonVGf2uY8H4P3c/pnXdPmfPNlWjyH+KkcpXyicdyTS+iP79povPJtzE3M5V6yylw0lNNLmbKBc8zZkg83pJ+z9EVb9s2Tpb5oi6+n52QizqdXvpYFTYB4WuCd13cCT0VPlEWQx7/xozjRUSYHtSNHfziNLMb1fVBHeujnYJ6e8kkW85BFIDOeAkkHdjEHG+lTkah+FVmyQUlGejkrWWkO51i4jclUUtLciF/Zhw/yo0zCpQ7JYRzXnLG1XCP8k4/RD+yPn4RkzNAHdeiLh+RFjOa6xo65dFlP+/nXfJlvDct8ppyhnFrmsJhHyrnKb4rBmINiTq/Nk8gnt2IDMjlrz+IeG9ljuN43TyIjHpInH3w+HBcTcX44I1pf4ASITWzCBKCST+trs6/9JDoVlfvK2HceSTsm+X3lHHre2nh/aLy2Lt98Wd8eWhaIc3K8lTw5JyZL0JWI8/UFxFQLkADRReXFV59T4X5IORTWx3p120qyXBvvD8kny74MujQR+16r+hzNw4f4pzpzYtdKnpwTkyXoSsR5PdGW4NicNiRAbCKpbvFJZfl2ybESJbxtJVmujfdz5owt6jJf2t9D49vRrCfHsd7VaiVPbi3W4USlz+0HRKWjtYCcjkuAeDrnULZYrnk6FwfMe3MtwzXzxXzJ8MVj2+RLIs7bdHAOYiZAdFHZyNvfc/CmdR3mvXNihsPmi/mS4YvHtsmXRJy36eAcxAREH0ZgSwjcfffdJ+7OEV/WsY7cu6X4sK9GYIsIJPeFdSS2Q2xQkOcQci3TnFsyB8x78zPDT/PFfMnwxWPb5Esiztt0cA5iJkB08em3v1fDAfPeOTGTX80X8yXDF49tky+JOG/TwTmImQBxNQXFHLhax7Jjbiu85xOvfAE0X0ivg29I4NOnOuLXTw19sfSQHPG8/AYC5KtvDWewWoMf9mHZecnrc9z1ScT5cQ1dMlESIDqp+knlajiwFd7ra1RU5PXd8x9B9B9CYq5SIcm5nKf/XILcY36JdLT3kNdb4cshMbRs1yFL50Aizr2YQ4uZAHE1BcUQFm7fTpysiffxqWP5vXsUg7FoLAtAFYeaVz6p1L8RLeUQK8zRU07ZoPu1xdKa+LK2tbE/28nbh17rRJwb9KHFSIDootJPKlfDga3wnmIw/k/3saKyLBzjfbxWLolFZWwDWz0ZVfvSznfddVd35513VvN5X75QZHOwBi+++GIVLswZwq8P86Vha3tcb7TKgUSce5GHFjkBYnUCHtLldvNwKRzYCu8zRSVPKXmqyRzWiQImPqnkPzWp2NETTt3HdW2h8HnLW97SPfbYY92TTz7ZXX/99Ttz2z58Ac/nn3/+5M8DIj67rl1UOk/u4oj7D8ORRJwfxoA1LGwCxJ2Jdw142IdtxMpWeJ8pKuE+RaIOCiJ+KI4kp/zAD3NUYGqeCtEWYunWW289KaTvv//+7vLLLx/McfvwZd/iuraoBHfG6kVAxBvdfQV/HOPrbeQ6r3P9OifivF7o1hYgAeJgwt0aZva3/Xgy73NrqKKyr4BpPR6uvvrq7uGHH+6ee+657qabburNc1m+xOKcuSowY6FHQaiDa+EYi0rw5gmxDvo0Vn//imzN5Vzq/tjHPnbm72oZwxzekv/gBz948sKBFw86oo3lC4bYF3X6OhdPxmuZeBEDlWuzTAcqja91cq9xCRD3kr8EH22D+V9ywLzPcWLNRaW4QUFJYUmBSaGpds778EWFpOTEYpHiLBZosW/oWgWeikrJ7TuX8rnXPMnBvrIwVRGrQpU5uo7z+nS6LRdTxmt5eCXifHnGL4VQCRDPJNml2G87zO19OGDe53izhaISHvEW+AMPPHDyZI+3xsWtPr5QbOmIBaLm0K9CjjauGafiTHN11liNA/P4yX1klDKlqzyXRWVcPwpJ/e1svJYMzVWBKft07vNVc33OxZXxWhZecLxyTZZleKXRtc6da1wCxHPpWZLPtsXxYN6bA2N5gA/v8CEePszz1re+Fbqk819ZAKpYVFFJf58NGjdlUYke5KKTopBr2nYVlWVR22ev2xxLa+FAIs696EOLngCxNwEOyXW7ObdkDsB7H0agBoEXXnjhZFiWz0NFJXIo7PibRgrMUq6KShWf8ckgfSoIy3nxnjlxHn0UkOjkh2u18cEqFbh6Oqn7Wn1Rt6+d+1vlAIFeabsXeQioBIi1YHvcxQQ+hLfbl4GNeb+MdVhqPNx2220nbxE/+OCD3bXXXgtd0jE9VlTiNwVbPGIhp4JQRZ7GxSKPwjAWhBFL9TFPclWkxmKWcfqUv3RIN/I0R30tfbI/4uFrx3sNB+B5zbiLYwzoEAYJEGvB9jjzbfEcMO+dE/ty4s0339w9++yz3aOPPtpdd911pzxe/qjnTgAADPhJREFUC18oSmPRqKKy74lpHz5uc9ysmQOJODcRhoiQAPE0wQ7Jcrt51goHzHtzNXL1xhtv7J544omTH65jH9dr4AtPLPl6Ip5+yj8XlY4DccHnVJybOEOEWUOyHPLN7eb9EAfM+/VwgyKJt3RjsTS07mU7TyN5KsnTSZ5Slv26b5kv8S10vRUuv1xUricOtKY+77+miTjfX8naFygB4mDCXTtG9m998WPer2dNeeuWt3UzRSV/J8nfS/LpZv5+cleMmy/r4cuutXb/dtc6EefbBWlXgCRA3Jl4d+lyv3m4FA6Y9+1zkadsfHCkPMqncX2cu/vuu7t77723u/LKK6vymvnSPl/6eOA2r2vkQCLODVwELl6XCdn3RmDtCFBQcMQ48HW7OZIPnnDED6DsWs8rrrgitf4nCvzLCBiB1SKQ3BfaTZi7kuN5+2HIeWV4vvnVGgfM+3VwVh8+ueeee04+hFLzlHIfrpov6+DLPmvvOdtZ+0ScbweUbAAkQHTx6a8KWg0HzHvnxEyuNF/MlwxfPLZNviTivE0H5yBmAsTVFBRz4Gody445837Z67O0+DFfzJelcdL2TM/JRJxPr3wtC5oA0UWln1SuhgPmvXNiJoebL+ZLhi8e2yZfEnHepoNzEDMB4moKijlwtY5lx5x5v+z1WVr8mC/n4wtf98TXN/GJ/aWtbav2lP8dqVU/lmR3Is7PFxBLcnpqWxIgOhn4SeVqOGDeOydmcunS+MIn3eP/8B7yhcJj6MNLtNM/NHfKduwd+3T+mJ21dlC4jn0JPvrP6+9UmI35S+FNAb7re1d3+RtxK/+HO3we4kWcp2vsHVs/jWv9nIhzJ9ChxU6AOEvyGbLT7ebwlBww782nDJ+WxBd92fvzzz+/88nfWPEyVYG0C0fs3WXrmJ275Kt/V5G1tqISv2tx20pRKC7se07EuRPoEMgJEF1U+knlajhg3jsnDuXEvvYxvhzyXx1euHDhksJR+h555JGdT97Gio65isqaJ29jdvatR1/bFovKuIZ6sVE+4dRTyqEnk30c68N3C21jcV747wRaAHJaHCRAPJ0zJMvt5lkrHDDvzdUMV8f4oiKPzXtIJk/JdPAWLUUU8xjPWf8ZiDP3KgQ05+WXXz59O1QFWF8RReGggznoUjHBeNp0IIcf2cDTxKeeeuqkW2910q9DYxkf/aEfHUM201e+VT9mZyknzi2x1ljkCQ+KJB2lzfF+yLe4hmOYMS76IRxoly2cJQ99EVew1rrH9cXH+PZ31BHHITfiwTXyGC+dOqO3nCvshJX6GYtt4C4+RtvpB2PG64g6S3sZG/tl0xLP+FNplxPoEFAJEGvB9riLwT6Et9uXgY15v4x1aCUexvgSN/Y+f/qKBG3WZfERx7Lpl28bl+PZ7LVh0xc/DFMWGbEwUEFBGzZrrIoe2riO95pf2iCfsUPy1Ma5bM/YyXxkSi52ggn20yc/0IFcCh3ZrD7dc5YcrtUuHfGetrJd8iQjrhVjuUc/5z6MmCcdXMdimXbdR7lcR3/xU+OkM/bL7r4zc3VwzRh8KjmGLeKn5ETb6VcBSn+0adfaSt5Sz2NxXtjsBFoAckIo2hIgns4ZkuV286wVDpj35mqGq318iZv0SSK9+CtutpLPJqxChLa4kffJ0IYex0lW33jJjpu7xtNHe7nZ00+75sZCRjZSvJSHxnPmwDfpUlEn+9Ue9UhvLIxoG7MzFlbxmnkq9Gp81DpozpBvsnsXZpKn8aUf+IgM9eOj8IrX9DNO4+NaML48IsdKPKRr7Mwc1gjM+jg25JdsL/uj7cgcWtsxm5bSB9aVtjiBDgGVALEWbI+7mCSG8Hb7MrAx75exDq3Ewxhfdm3s5SYcN/K+TViYxHFqU/Gl+9oNnXHxKSbz0Y08rksfVHgxRrr6zvjGEcdproqfUnafz/Krz844P15jj3Qhs28u7fJR6xDn9Pmktlp5Gs85+qEiUf30YYPG6Zp7dGk8Purtb9ksGeW5xKPsH7pHLj9g0fekMtqGjGi75kp2tH1sbTV+yeexOC/sdgItADlNFAkQT+cMyXK7edYKB8x7czXD1TG+7NrY2WhVYKGT8dxzZkPmmjGlPeWGz3gVG3GsNvwol/4oW4VULBaYx49sKt9GZWz51Cnq1XVZZNAebS/tHrOTufJH8ks7IwbI0lM3+SsfS59pl781vpXzZZtkjPmFLbGIL21DRsQ22hPlllgJE51j0ay2XWf5xdy4TpqHLfzonjP2qq3sx7dYEIvbzJPfffyO8pdyPRbnhY1OoAUgp4RJgHg6Z0iW282zVjhg3purGa6ely9sxDooNtiEKRiwgTOFkY6y2KCdjfrpp58+LYqi7WzYmsO1DubQrg1dG7z6KRRigVQWleigPx7IKuWgh7aomzmS3Ve4xLGlnSp6pFe+yedoE33YLbvo04eNog3MZQ1k05Bv0o08xpS+Mj/KiH6gT/OkTz7gIx9YUWHG9eOPP3667sKQebGo5L7UEfVzLZniUbSB+fJJtnDWnGinbKAv9jMm6in7wYh14FzaW64t/Uv+AZtK+5btSKUTtc6mxiVATMk9pk/Wbb7v4oB5b47s4kjsn5IvfUVW1LXGawqRWAwt1ceyQFqqndjViq2se1noLhXXRJw7gQ4tYgJEF5ULf5U1tMZuvzT+zftLMTFPhjGZki9ssHoqtBXMKYDi28FL9Zu1KZ/SLdXW+PRwqTby9BSuc16qjdGuRJwPJ4socIvXCRCbIMUW19A+5+PbvM9jtmWenYcvFFRsrPFo5cnNltfcvudzxK632peOaSLO8+As3fmp7EuA6KLSTypXwwHz3jkxk0PNF/MlwxePbZMviThv08E5iJkAcTUFxRy4WseyY868X/b6LC1+zBfzZWmctD3TczIR59MrX8uCJkB0UeknlavhgHnvnJjJ4eaL+ZLhi8e2yZdEnLfp4BzETIC4moJiDlytY9kxZ94ve32WFj/mi/myNE7anuk5mYjz6ZWvZUETILqo9JPK1XDAvHdOzORw88V8yfDFY9vkSyLO23RwDmImQFxNQTEHrtax7Jgz75e9PkuLH/PFfFkaJ23P9JxMxPn0yteyoAkQXVT6SeVqOGDeOydmcrj5Yr5k+OKxbfIlEedtOjgHMRMgrqagmANX61h2zJn3y16fpcWP+WK+LI2Ttmd6TibifHrla1nQBIguKv2kcjUcMO+dEzM53HwxXzJ88dg2+ZKI8zYdnIOYCRBXU1DMgat1LDvmzPtlr8/S4sd8MV+WxknbMz0nE3E+vfK1LGgCRBeVflK5Gg6Y986JmRxuvpgvGb54bJt8ScR5mw7OQcwEiKspKObA1TqWHXPm/bLXZ2nxY76YL0vjpO2ZnpOJOJ9e+VoWNAGii0o/qVwNB8x758RMDjdfzJcMXzy2Tb4k4rxNB+cgZgLE1RQUc+BqHcuOOfN+2euztPgxX8yXpXHS9kzPyUScT698LQuaANFFpZ9UroYD5r1zYiaHmy/mS4YvHtsmXxJx3qaDcxAzAeJqCoo5cLWOZceceb/s9Vla/Jgv5svSOGl7pudkIs6nV76WBU2A6KLSTypXwwHz3jkxk8PNF/MlwxePbZMviThv08E5iJkAcTUFxRy4WseyY868X/b6LC1+zBfzZWmctD3TczIR59MrX8uCJkB0UeknlavhgHnvnJjJ4eaL+ZLhi8e2yZdEnLfp4BzETIC4moJiDlytY9kxZ94ve32WFj/mi/myNE7anuk5mYjz6ZWvZUETILqo9JPK1XDAvHdOzORw88V8yfDFY9vkSyLO23RwDmImQFxNQTEHrtax7Jgz75e9PkuLH/PFfFkaJ23P9JxMxPn0yteyoAkQXVT6SeVqOGDeOydmcrj5Yr5k+OKxbfIlEedtOjgHMRMgrqagmANX61h2zJn3y16fpcWP+WK+LI2Ttmd6TibifHrla1nQBIguKv2kcjUcMO+dEzM53HwxXzJ88dg2+ZKI8zYdnIOYgOjDCGwRgTniyzrWkXu3GB/22QhsEYHKnL2OxFbp7GqeJtlf89YcMAfMAXPAHDAHFsYBL8jCFsSFr99KNwfMAXPAHDAHzIEWOeCi0kWlOWAOmAPmgDlgDpgD5sC5OXBuAS1W0rbZrwDNAXPAHDAHzAFzwByYlgMuKv3KxBwwB8wBc8AcMAfMAXPg3Bw4twBX+dNW+cbTeJoD5oA5YA6YA+ZAixxwUelXJuaAOWAOmAPmgDlgDpgD5+bAuQW0WEnbZr8CNAfMAXPAHDAHzAFzYFoOuKj0KxNzwBwwB8wBc8AcMAfMgXNz4NwCXOVPW+UbT+NpDpgD5oA5YA6YAy1ywEWlX5mYA+aAOWAOmAPmgDlgDpybA+cW0GIlbZv9CtAcMAfMAXPAHDAHzIFpOeCi0q9MzAFzwBwwB8wBc8AcMAfOx4H/Axz5NGpKG9d7AAAAAElFTkSuQmCC;" vertex="1" parent="1">
          <mxGeometry x="63" y="10" width="723.72" height="300" as="geometry" />
        </mxCell>
        <mxCell id="ToEpiLO9f7POj9ov01aA-2" value="&lt;i&gt;direccion&lt;/i&gt;" style="html=1;verticalAlign=bottom;endArrow=open;dashed=1;endSize=8;curved=0;rounded=0;" edge="1" parent="1" source="HJQ2WrZzmwikBVrHChBw-3" target="HJQ2WrZzmwikBVrHChBw-5">
          <mxGeometry x="-0.0286" relative="1" as="geometry">
            <mxPoint x="470" y="570" as="sourcePoint" />
            <mxPoint x="340" y="570" as="targetPoint" />
            <mxPoint as="offset" />
            <Array as="points">
              <mxPoint x="390" y="590" />
            </Array>
          </mxGeometry>
        </mxCell>
        <mxCell id="ToEpiLO9f7POj9ov01aA-4" value="&lt;i&gt;return&lt;/i&gt;" style="html=1;verticalAlign=bottom;endArrow=open;dashed=1;endSize=8;curved=0;rounded=0;" edge="1" parent="1" source="HJQ2WrZzmwikBVrHChBw-5">
          <mxGeometry x="-0.0286" relative="1" as="geometry">
            <mxPoint x="300" y="630" as="sourcePoint" />
            <mxPoint x="200" y="630" as="targetPoint" />
            <mxPoint as="offset" />
            <Array as="points">
              <mxPoint x="232" y="630" />
            </Array>
          </mxGeometry>
        </mxCell>
      </root>
    </mxGraphModel>
  </diagram>
</mxfile>
